# xmcd CD database file
#
# Track frame offsets:
#	225
#	10196
#	21662
#	32077
#	48297
#	62507
#	73888
#	90481
#	103838
#	116066
#	126138
#	138278
#	148141
#	159993
#	171881
#	184165
#
# Disc length: 2689 seconds
#
# Revision: 0
# Processed by: cddbd v1.5.2PL0 Copyright (c) Steve Scherf et al.
# Submitted via: CDex 1.51
#
DISCID=e30a7e10
DTITLE=Various Artist - Classic Country Collection - CD 3
DYEAR=2000
DGENRE=Country
TTITLE0=Buck Owens_I Got A Tiger By The Tail
TTITLE1=Jonny_Horton_The Battle Of New Orleans
TTITLE2=Wanda Jackson_It's Only Make Believe
TTITLE3=Johnny Cash_Citty Of New Orleans
TTITLE4=Slim Whitmann_Indian Love Call
TTITLE5=Jean Sheppard and Ferlin Husky_A Dear John Letter
TTITLE6=Nancy Wood_We Never Give Up
TTITLE7=Glen Campbell_Gentle On My Mind
TTITLE8=Roy Clark_Tips Of My Fingers
TTITLE9=Willie Nelson_Touch Me
TTITLE10=Johhny Paycheck_Take This Job And Shove It
TTITLE11=Ned Miller_From A Jack To A King
TTITLE12=Johnny Preston_Running Bear
TTITLE13=Frankie Laine_High Moon (Do Not Forsake Me)
TTITLE14=Bobby Helms_Tennessee Rock'n'Roll
TTITLE15=Patsy Cline and Waylon Jennings_Just Out Of Reach (Of My Two Open Arms)
EXTD=YEAR: 2000
EXTT0=
EXTT1=
EXTT2=
EXTT3=
EXTT4=
EXTT5=
EXTT6=
EXTT7=
EXTT8=
EXTT9=
EXTT10=
EXTT11=
EXTT12=
EXTT13=
EXTT14=
EXTT15=
PLAYORDER=
